# xmcd CD database file
#
# Track frame offsets:
#	151
#	24931
#	50913
#	73702
#	83785
#	108523
#	124385
#	142041
#	153985
#	173852
#	191749
#
# Disc length: 2878 seconds
#
# Revision: 0
# Processed by: cddbd v1.5.1PL2 Copyright (c) Steve Scherf et al.
# Submitted via: CDex 1.51
#
DISCID=9e0b3c0b
DTITLE=Sidsel Endresen and Bugge Wesseltoft - Out here. In there.
DYEAR=2002
DGENRE=Jazz
TTITLE0=Truth
TTITLE1=Out Here, In There
TTITLE2=Survival Techniques 1+2
TTITLE3=Survival Techniques 3
TTITLE4=Names, Numbers
TTITLE5=Hav
TTITLE6=Birds
TTITLE7=Voices
TTITLE8=Heartbeat
TTITLE9=Ido
TTITLE10=Try
EXTD=YEAR: 2002
EXTT0=
EXTT1=
EXTT2=
EXTT3=
EXTT4=
EXTT5=
EXTT6=
EXTT7=
EXTT8=
EXTT9=
EXTT10=
PLAYORDER=
